<svg id="Layer_2" data-name="Layer 2" xmlns="http://www.w3.org/2000/svg" viewBox="0 0 401.78 461.97"><defs><style>.cls-1{fill:#fff;}</style></defs><polygon class="cls-1" points="197.95 113.89 189.95 113.89 189.95 181.95 197.95 174.65 197.95 113.89"/><rect class="cls-1" x="189.95" y="286.46" width="8" height="24.24"/><polygon class="cls-1" points="197.95 200.18 189.95 200.18 189.95 268.24 197.95 260.94 197.95 200.18"/><rect class="cls-1" x="189.95" y="74.65" width="8" height="24.24"/><polygon class="cls-1" points="202.44 267.67 202.44 271.46 210.44 271.46 210.44 260.37 202.44 267.67"/><rect class="cls-1" x="202.44" y="74.65" width="8" height="24.24"/><polygon class="cls-1" points="210.44 163.25 210.44 113.89 202.44 113.89 202.44 170.56 210.44 163.25"/><rect class="cls-1" x="202.44" y="286.46" width="8" height="24.24"/><polygon class="cls-1" points="210.44 200.18 202.44 200.18 202.44 256.84 210.44 249.54 210.44 200.18"/><polygon class="cls-1" points="210.44 174.09 202.44 181.39 202.44 185.18 210.44 185.18 210.44 174.09"/><polygon class="cls-1" points="214.93 200.18 214.93 245.45 222.93 238.15 222.93 200.18 214.93 200.18"/><polygon class="cls-1" points="222.93 151.86 222.93 113.89 214.93 113.89 214.93 159.16 222.93 151.86"/><rect class="cls-1" x="214.93" y="286.46" width="8" height="24.24"/><polygon class="cls-1" points="214.93 256.28 214.93 271.46 222.93 271.46 222.93 248.98 214.93 256.28"/><polygon class="cls-1" points="222.93 185.18 222.93 162.69 214.93 169.99 214.93 185.18 222.93 185.18"/><rect class="cls-1" x="214.93" y="74.65" width="8" height="24.24"/><rect class="cls-1" x="239.9" y="286.46" width="8" height="24.24"/><polygon class="cls-1" points="239.9 233.49 239.9 271.46 247.9 271.46 247.9 226.19 239.9 233.49"/><polygon class="cls-1" points="247.9 129.07 247.9 113.89 239.9 113.89 239.9 136.37 247.9 129.07"/><polygon class="cls-1" points="239.9 200.18 239.9 222.66 247.9 215.36 247.9 200.18 239.9 200.18"/><polygon class="cls-1" points="247.9 185.18 247.9 139.9 239.9 147.2 239.9 185.18 247.9 185.18"/><rect class="cls-1" x="239.9" y="74.65" width="8" height="24.24"/><rect class="cls-1" x="252.39" y="286.46" width="8" height="24.24"/><polygon class="cls-1" points="260.39 117.67 260.39 113.89 252.39 113.89 252.39 124.98 260.39 117.67"/><rect class="cls-1" x="252.39" y="74.65" width="8" height="24.24"/><polygon class="cls-1" points="252.39 200.18 252.39 211.26 260.39 203.96 260.39 200.18 252.39 200.18"/><polygon class="cls-1" points="252.39 222.09 252.39 271.46 260.39 271.46 260.39 214.79 252.39 222.09"/><polygon class="cls-1" points="252.39 185.18 260.39 185.18 260.39 128.51 252.39 135.81 252.39 185.18"/><rect class="cls-1" x="264.88" y="74.65" width="8" height="24.24"/><rect class="cls-1" x="264.88" y="286.46" width="8" height="24.24"/><polygon class="cls-1" points="264.88 185.18 272.88 185.18 272.88 117.11 264.88 124.41 264.88 185.18"/><polygon class="cls-1" points="264.88 271.46 272.88 271.46 272.88 203.4 264.88 210.7 264.88 271.46"/><polygon class="cls-1" points="197.95 113.89 189.95 113.89 189.95 181.95 197.95 174.65 197.95 113.89"/><rect class="cls-1" x="189.95" y="286.46" width="8" height="24.24"/><polygon class="cls-1" points="197.95 200.18 189.95 200.18 189.95 268.24 197.95 260.94 197.95 200.18"/><rect class="cls-1" x="189.95" y="74.65" width="8" height="24.24"/><polygon class="cls-1" points="202.44 267.67 202.44 271.46 210.44 271.46 210.44 260.37 202.44 267.67"/><rect class="cls-1" x="202.44" y="74.65" width="8" height="24.24"/><polygon class="cls-1" points="210.44 163.25 210.44 113.89 202.44 113.89 202.44 170.56 210.44 163.25"/><rect class="cls-1" x="202.44" y="286.46" width="8" height="24.24"/><polygon class="cls-1" points="210.44 200.18 202.44 200.18 202.44 256.84 210.44 249.54 210.44 200.18"/><polygon class="cls-1" points="210.44 174.09 202.44 181.39 202.44 185.18 210.44 185.18 210.44 174.09"/><polygon class="cls-1" points="214.93 200.18 214.93 245.45 222.93 238.15 222.93 200.18 214.93 200.18"/><polygon class="cls-1" points="222.93 151.86 222.93 113.89 214.93 113.89 214.93 159.16 222.93 151.86"/><rect class="cls-1" x="214.93" y="286.46" width="8" height="24.24"/><polygon class="cls-1" points="214.93 256.28 214.93 271.46 222.93 271.46 222.93 248.98 214.93 256.28"/><polygon class="cls-1" points="222.93 185.18 222.93 162.69 214.93 169.99 214.93 185.18 222.93 185.18"/><rect class="cls-1" x="214.93" y="74.65" width="8" height="24.24"/><rect class="cls-1" x="239.9" y="286.46" width="8" height="24.24"/><polygon class="cls-1" points="239.9 233.49 239.9 271.46 247.9 271.46 247.9 226.19 239.9 233.49"/><polygon class="cls-1" points="247.9 129.07 247.9 113.89 239.9 113.89 239.9 136.37 247.9 129.07"/><polygon class="cls-1" points="239.9 200.18 239.9 222.66 247.9 215.36 247.9 200.18 239.9 200.18"/><polygon class="cls-1" points="247.9 185.18 247.9 139.9 239.9 147.2 239.9 185.18 247.9 185.18"/><rect class="cls-1" x="239.9" y="74.65" width="8" height="24.24"/><rect class="cls-1" x="252.39" y="286.46" width="8" height="24.24"/><polygon class="cls-1" points="260.39 117.67 260.39 113.89 252.39 113.89 252.39 124.98 260.39 117.67"/><rect class="cls-1" x="252.39" y="74.65" width="8" height="24.24"/><polygon class="cls-1" points="252.39 200.18 252.39 211.26 260.39 203.96 260.39 200.18 252.39 200.18"/><polygon class="cls-1" points="252.39 222.09 252.39 271.46 260.39 271.46 260.39 214.79 252.39 222.09"/><polygon class="cls-1" points="252.39 185.18 260.39 185.18 260.39 128.51 252.39 135.81 252.39 185.18"/><rect class="cls-1" x="264.88" y="74.65" width="8" height="24.24"/><rect class="cls-1" x="264.88" y="286.46" width="8" height="24.24"/><polygon class="cls-1" points="264.88 185.18 272.88 185.18 272.88 117.11 264.88 124.41 264.88 185.18"/><polygon class="cls-1" points="264.88 271.46 272.88 271.46 272.88 203.4 264.88 210.7 264.88 271.46"/><polygon class="cls-1" points="227.41 147.77 235.41 140.47 235.41 113.89 227.41 113.89 227.41 147.77"/><polygon class="cls-1" points="227.41 158.6 227.41 185.18 235.41 185.18 235.41 151.3 227.41 158.6"/><polygon class="cls-1" points="235.41 200.18 227.41 200.18 227.41 234.05 235.41 226.75 235.41 200.18"/><polygon class="cls-1" points="235.41 237.58 227.41 244.88 227.41 271.46 235.41 271.46 235.41 237.58"/><rect class="cls-1" x="227.41" y="286.46" width="8" height="175.51"/><path class="cls-1" d="M509.19,182.07c-8.32,21.26-49.9,30.38-69,31.64v-5.84h-6c0-.33,0-.66,0-1a209.92,209.92,0,0,0-4-37.86,215.51,215.51,0,0,0-4,37.86v1h-6v6a209.92,209.92,0,0,0-37.86,4,215.51,215.51,0,0,0,37.86,4v6h6v40h8v-40h6v-5.81c18.11,1.41,60.78,10.87,69,31.6C536.61,243.66,536.61,192.07,509.19,182.07Zm-79,39.8a4,4,0,1,1,4-4A4,4,0,0,1,430.15,221.87Z" transform="translate(-198.73 -169.01)"/><path class="cls-1" d="M529.76,337.6l-.26,10.62H498.84V347h1.07a6.23,6.23,0,0,0,3.2-.58,2.71,2.71,0,0,0,1.15-1.82,40.22,40.22,0,0,0,.25-5.77V321.13a37.94,37.94,0,0,0-.25-5.56,2.44,2.44,0,0,0-1.07-1.73,8.25,8.25,0,0,0-3.55-.48h-.8v-1.23h17.33v1.23h-1.6a8.65,8.65,0,0,0-3.49.44,2.3,2.3,0,0,0-1.1,1.63,33.52,33.52,0,0,0-.28,5.7V340a32.78,32.78,0,0,0,.21,4.9,2.3,2.3,0,0,0,1.16,1.53,9.66,9.66,0,0,0,4.06.54h2.74a15.46,15.46,0,0,0,4.93-.58,6.8,6.8,0,0,0,3.06-2.56,19.86,19.86,0,0,0,2.65-6.25Z" transform="translate(-198.73 -169.01)"/><path class="cls-1" d="M554.22,344.23h1q-.24,4.54-4.47,4.55a4.09,4.09,0,0,1-2.86-1A4.8,4.8,0,0,1,546.5,345a27.53,27.53,0,0,1-4.86,2.85,9.94,9.94,0,0,1-3.92,1,5.94,5.94,0,0,1-3.81-1.28,4.12,4.12,0,0,1-1.59-3.38,6,6,0,0,1,2.67-4.79,32.6,32.6,0,0,1,7.39-4l4.12-1.68V332.6a13.36,13.36,0,0,0-.29-3.28,3.36,3.36,0,0,0-1.52-1.8,5.73,5.73,0,0,0-3.22-.8c-2.66,0-4.14.88-4.44,2.66s-1,2.71-2.24,2.71-1.62-.51-1.62-1.54.72-2.1,2.15-3.26,3.68-1.74,6.71-1.74a10.65,10.65,0,0,1,5.24,1.06,5.56,5.56,0,0,1,2.46,2.42,10.85,10.85,0,0,1,.6,4.15V342a15,15,0,0,0,.32,4,1.32,1.32,0,0,0,1.39.87C553.21,346.83,553.93,346,554.22,344.23Zm-7.72-9.32-2.9,1.17q-6.87,2.81-6.87,7a4,4,0,0,0,.88,2.7,2.89,2.89,0,0,0,2.29,1,6.63,6.63,0,0,0,2.9-.82,21.46,21.46,0,0,0,3.7-2.48Z" transform="translate(-198.73 -169.01)"/><path class="cls-1" d="M561,349.1h-1V319.93a28.27,28.27,0,0,0-.18-4.12,2,2,0,0,0-.88-1.39,4.86,4.86,0,0,0-2.46-.45v-1.22a23.13,23.13,0,0,0,3.78-.38,13.06,13.06,0,0,0,3-.74h.56v17.24a13.83,13.83,0,0,1,3.78-2.5,9.7,9.7,0,0,1,3.88-.82,10,10,0,0,1,7.72,3.27,11.88,11.88,0,0,1,3,8.35,12.19,12.19,0,0,1-3.08,8.52,10.32,10.32,0,0,1-8,3.41,8.57,8.57,0,0,1-4.25-1,8.23,8.23,0,0,1-3-3A13.75,13.75,0,0,0,561,349.1Zm2.8-18.66V339a17.78,17.78,0,0,0,.44,4.75,5.76,5.76,0,0,0,2.11,2.78,6.1,6.1,0,0,0,3.91,1.34,6.39,6.39,0,0,0,5.47-2.83q2-2.82,2-8.11c0-3.25-.64-5.72-1.9-7.41A6,6,0,0,0,570.8,327a7.9,7.9,0,0,0-3.56.86A12.83,12.83,0,0,0,563.8,330.44Z" transform="translate(-198.73 -169.01)"/><path class="cls-1" d="M586.36,348.91v-7.16h1q1.82,6.21,6.47,6.2a3.7,3.7,0,0,0,3-1.22,4.18,4.18,0,0,0,1-2.69,3.8,3.8,0,0,0-1.06-2.79,17.2,17.2,0,0,0-4.23-2.64,16.13,16.13,0,0,1-4.74-3.19,5.37,5.37,0,0,1-1.43-3.81A6.56,6.56,0,0,1,588,327.5a5.21,5.21,0,0,1,4.34-1.95,5.81,5.81,0,0,1,4.71,2.31,7,7,0,0,0,1-1.94h1v6.73h-1a9.13,9.13,0,0,0-2.06-4.16,4.64,4.64,0,0,0-3.6-1.75,3.46,3.46,0,0,0-2.58,1,3.12,3.12,0,0,0-1,2.29,3.29,3.29,0,0,0,1.09,2.47,14.62,14.62,0,0,0,4.07,2.42c3,1.37,4.86,2.7,5.54,4a8.37,8.37,0,0,1,1,3.78,6.1,6.1,0,0,1-1.88,4.63,6.57,6.57,0,0,1-4.72,1.79,7.2,7.2,0,0,1-5.35-2.48,6,6,0,0,0-1.17,2.29Z" transform="translate(-198.73 -169.01)"/><path class="cls-1" d="M517,384.49l-.15,5.94H499.71v-.69h.59a3.52,3.52,0,0,0,1.8-.32,1.56,1.56,0,0,0,.64-1,22.4,22.4,0,0,0,.14-3.23v-9.9a21.2,21.2,0,0,0-.14-3.11,1.39,1.39,0,0,0-.6-1,4.62,4.62,0,0,0-2-.27h-.44v-.68h9.69v.68h-.89a5,5,0,0,0-2,.25,1.29,1.29,0,0,0-.61.91,18.23,18.23,0,0,0-.16,3.19v10.57a17.85,17.85,0,0,0,.12,2.74,1.28,1.28,0,0,0,.65.86,5.43,5.43,0,0,0,2.27.3h1.53a8.62,8.62,0,0,0,2.76-.32,3.92,3.92,0,0,0,1.72-1.43,11.34,11.34,0,0,0,1.48-3.5Z" transform="translate(-198.73 -169.01)"/><path class="cls-1" d="M535.43,384.49l-.15,5.94H518.12v-.69h.6a3.48,3.48,0,0,0,1.79-.32,1.49,1.49,0,0,0,.64-1,20.45,20.45,0,0,0,.15-3.23v-9.9a19.35,19.35,0,0,0-.15-3.11,1.35,1.35,0,0,0-.59-1,4.62,4.62,0,0,0-2-.27h-.45v-.68h9.7v.68h-.9a5,5,0,0,0-1.95.25,1.29,1.29,0,0,0-.61.91,18.23,18.23,0,0,0-.16,3.19v10.57a17.85,17.85,0,0,0,.12,2.74,1.25,1.25,0,0,0,.65.86,5.43,5.43,0,0,0,2.27.3h1.53a8.62,8.62,0,0,0,2.76-.32,4,4,0,0,0,1.72-1.43,11.34,11.34,0,0,0,1.48-3.5Z" transform="translate(-198.73 -169.01)"/><path class="cls-1" d="M554.65,382.85h.64v7.07h-.64a5.46,5.46,0,0,0-1-2.13,8.65,8.65,0,0,1-6.8,3,9.69,9.69,0,0,1-7.16-2.77,9.88,9.88,0,0,1-2.77-7.32,12.67,12.67,0,0,1,1.28-5.64,8.6,8.6,0,0,1,3.57-3.92,10.09,10.09,0,0,1,5-1.28,9,9,0,0,1,4.11.93,8.11,8.11,0,0,1,2.74,2.06,7.33,7.33,0,0,0,.78-2.62h.65l.18,7.65h-.64q-.67-4.08-2.73-5.67a7.44,7.44,0,0,0-4.65-1.59,5.91,5.91,0,0,0-5,2.57q-1.86,2.58-1.86,7.37,0,4.55,2,7a6.35,6.35,0,0,0,5.07,2.42,7.75,7.75,0,0,0,3.32-.79,5.7,5.7,0,0,0,2.69-2.67A10,10,0,0,0,554.65,382.85Z" transform="translate(-198.73 -169.01)"/><path class="cls-1" d="M559.49,389.31a1.6,1.6,0,0,1,2.73-1.12,1.5,1.5,0,0,1,.47,1.12,1.53,1.53,0,0,1-.48,1.14,1.55,1.55,0,0,1-1.13.47,1.52,1.52,0,0,1-1.13-.48A1.59,1.59,0,0,1,559.49,389.31Z" transform="translate(-198.73 -169.01)"/><path class="cls-1" d="M223,342l13.15-29.86h11.07v1.23h-1.34a8.62,8.62,0,0,0-3.48.44,2.33,2.33,0,0,0-1.11,1.63,35.13,35.13,0,0,0-.27,5.7v17.69a45.35,45.35,0,0,0,.21,5.58,2.83,2.83,0,0,0,1.08,2,5.93,5.93,0,0,0,3.31.64h1.6v1.23H229.92V347h1.28a6.19,6.19,0,0,0,3.18-.58,2.74,2.74,0,0,0,1.14-1.82,38.17,38.17,0,0,0,.26-5.77v-23l-14.29,32.36h-1.25l-14.4-32.36V337a41.9,41.9,0,0,0,.27,5.91,4.53,4.53,0,0,0,1.65,2.75,6.38,6.38,0,0,0,3.88,1.34v1.23H198.73V347a6.56,6.56,0,0,0,3.77-1.26,4.52,4.52,0,0,0,1.77-2.78,38.6,38.6,0,0,0,.32-6.12v-15.7a37.94,37.94,0,0,0-.25-5.56,2.44,2.44,0,0,0-1.07-1.73,8.25,8.25,0,0,0-3.55-.48h-1v-1.23h11Z" transform="translate(-198.73 -169.01)"/><path class="cls-1" d="M270,333.79H254.78c-.07,1-.11,1.83-.11,2.35q0,5.75,1.8,8.63a5.88,5.88,0,0,0,5.36,2.89,7,7,0,0,0,6.86-4.34H270a7.44,7.44,0,0,1-3.38,4.25,10.58,10.58,0,0,1-10.74.13,11.2,11.2,0,0,1-4-3.95,11.7,11.7,0,0,1-1.57-6.2,12.42,12.42,0,0,1,3-8.58,9.71,9.71,0,0,1,7.58-3.42,8.47,8.47,0,0,1,6.63,2.6A8.92,8.92,0,0,1,270,333.79Zm-4.66-1.06a7.46,7.46,0,0,0,.08-1.09,4.57,4.57,0,0,0-4.73-4.92q-4.85,0-5.78,6Z" transform="translate(-198.73 -169.01)"/><path class="cls-1" d="M290.73,328.34c1.5-1.7,3-2.55,4.57-2.55a2.72,2.72,0,0,1,2,.69A2.07,2.07,0,0,1,298,328c0,1.17-.53,1.76-1.59,1.76a1.8,1.8,0,0,1-1.52-1.09c-.39-.67-.8-1-1.23-1a3.28,3.28,0,0,0-2.23,1.38,8.54,8.54,0,0,1,1.38,4.63,8,8,0,0,1-2.29,5.64q-2.28,2.47-7.71,2.66-5.64.19-5.64,2.29c0,.66.42,1.12,1.27,1.39a25.1,25.1,0,0,0,5.27.64,36.21,36.21,0,0,1,6.76.81,6.71,6.71,0,0,1,3.78,2.41,7.12,7.12,0,0,1-1.46,10q-2.88,2.16-8.28,2.16a14.48,14.48,0,0,1-7.93-1.92,5.62,5.62,0,0,1-3-4.84,4,4,0,0,1,.85-2.66,3,3,0,0,1,2.42-1,2.3,2.3,0,0,1,.77.13,5.65,5.65,0,0,0-1.65,3.84,4.58,4.58,0,0,0,2.2,3.87q2.19,1.53,6.56,1.53a10.2,10.2,0,0,0,6.05-1.56,4.7,4.7,0,0,0,2.17-4,4,4,0,0,0-1.94-3.75c-1.3-.71-3.6-1.13-6.92-1.28-3.81-.16-6.29-.63-7.42-1.41a3.42,3.42,0,0,1-1.71-2.95c0-2.32,1.63-3.79,4.87-4.39a11.38,11.38,0,0,1-3.8-3.41,7.53,7.53,0,0,1-1.28-4.28,7.3,7.3,0,0,1,2.62-5.66,9.06,9.06,0,0,1,6.22-2.32A9.46,9.46,0,0,1,290.73,328.34Zm-12,5.8q0,3.44,1.41,5a4.71,4.71,0,0,0,7.07,0c1-1.05,1.45-2.88,1.45-5.49s-.52-4.44-1.55-5.43a4.89,4.89,0,0,0-3.48-1.49,4.1,4.1,0,0,0-3.67,1.84A10,10,0,0,0,278.75,334.14Z" transform="translate(-198.73 -169.01)"/><path class="cls-1" d="M322.13,344.23h1q-.24,4.54-4.47,4.55a4.07,4.07,0,0,1-2.86-1,4.8,4.8,0,0,1-1.37-2.85,27.53,27.53,0,0,1-4.86,2.85,9.94,9.94,0,0,1-3.92,1,5.94,5.94,0,0,1-3.81-1.28,4.12,4.12,0,0,1-1.59-3.38,6,6,0,0,1,2.67-4.79,32.6,32.6,0,0,1,7.39-4l4.12-1.68V332.6a13.36,13.36,0,0,0-.29-3.28,3.36,3.36,0,0,0-1.52-1.8,5.76,5.76,0,0,0-3.22-.8c-2.66,0-4.14.88-4.44,2.66s-1,2.71-2.24,2.71-1.62-.51-1.62-1.54.72-2.1,2.15-3.26,3.68-1.74,6.71-1.74a10.65,10.65,0,0,1,5.24,1.06,5.56,5.56,0,0,1,2.46,2.42,10.85,10.85,0,0,1,.6,4.15V342a15,15,0,0,0,.32,4,1.32,1.32,0,0,0,1.38.87C321.12,346.83,321.84,346,322.13,344.23Zm-7.72-9.32-2.9,1.17q-6.87,2.81-6.87,7a4,4,0,0,0,.88,2.7,2.89,2.89,0,0,0,2.29,1,6.66,6.66,0,0,0,2.9-.82,21.46,21.46,0,0,0,3.7-2.48Z" transform="translate(-198.73 -169.01)"/><path class="cls-1" d="M332,311.63v29.11c0,2.32,0,3.79.09,4.39a1.81,1.81,0,0,0,.76,1.38,4.24,4.24,0,0,0,2.37.48h.63v1.23H324.23V347H325a4.31,4.31,0,0,0,2.28-.44,1.75,1.75,0,0,0,.81-1.23,42.77,42.77,0,0,0,.13-4.58V319.19c0-2.29-.2-3.73-.61-4.33s-1.4-.89-3-.89v-1.22a23.16,23.16,0,0,0,3.82-.38,13.64,13.64,0,0,0,3-.74Z" transform="translate(-198.73 -169.01)"/><path class="cls-1" d="M338.76,337.28a11.42,11.42,0,0,1,3.35-8.37,11.82,11.82,0,0,1,16.53,0,11.39,11.39,0,0,1,3.35,8.35,11.22,11.22,0,0,1-3.41,8.66,11.68,11.68,0,0,1-8.22,3.16,11.51,11.51,0,0,1-8.21-3.21A11.3,11.3,0,0,1,338.76,337.28Zm4.42.13q0,5.8,1.88,8.13a7.24,7.24,0,0,0,10.64,0q1.85-2.32,1.84-8.13t-1.83-8.19a7.07,7.07,0,0,0-10.69,0C343.79,330.83,343.18,333.56,343.18,337.41Z" transform="translate(-198.73 -169.01)"/></svg>